<svg xmlns="http://www.w3.org/2000/svg" width="216" height="48" fill="none"><path fill="#355B3E" fill-rule="evenodd" d="M15.451 30.427a4.652 4.652 0 0 0 5.052-.462 4.395 4.395 0 0 0 1.468-2.143 4.277 4.277 0 0 0-.018-2.574 8.259 8.259 0 0 1 .615-6.488 8.554 8.554 0 0 1 2.157-2.579 8.842 8.842 0 0 1 3.012-1.579 4.544 4.544 0 0 0 2.172-1.434 4.292 4.292 0 0 0 .463-4.86 4.472 4.472 0 0 0-1.865-1.795A4.653 4.653 0 0 0 23.503 7a4.396 4.396 0 0 0-1.461 2.118 4.277 4.277 0 0 0-.006 2.55 8.264 8.264 0 0 1-.635 6.45c-1.082 1.985-2.93 3.472-5.14 4.136a4.55 4.55 0 0 0-2.229 1.418 4.294 4.294 0 0 0-.489 4.92 4.476 4.476 0 0 0 1.909 1.806v.03Zm27.89 4.886a4.46 4.46 0 0 0-1.233-1.26 4.608 4.608 0 0 0-1.64-.699c-2.253-.508-4.208-1.862-5.436-3.764a8.285 8.285 0 0 1-1.118-6.39 4.28 4.28 0 0 0-.188-2.54 4.422 4.422 0 0 0-1.606-2.014 4.629 4.629 0 0 0-2.488-.814 4.642 4.642 0 0 0-2.535.66 4.447 4.447 0 0 0-1.734 1.91 4.285 4.285 0 0 0-.354 2.524c.141.857.54 1.654 1.146 2.292a4.567 4.567 0 0 0 2.262 1.291 8.888 8.888 0 0 1 3.127 1.35A8.608 8.608 0 0 1 33.9 30.27c.614.946 1.03 2 1.223 3.102a8.25 8.25 0 0 1-.097 3.32 4.275 4.275 0 0 0 .079 2.12c.204.69.58 1.322 1.092 1.84a4.558 4.558 0 0 0 1.852 1.128 4.667 4.667 0 0 0 2.18.157 4.607 4.607 0 0 0 2.003-.85 4.428 4.428 0 0 0 1.36-1.662 4.289 4.289 0 0 0-.25-4.112Zm-17.96-5.202a4.65 4.65 0 0 1 1.743-.403c.741-.018 1.476.14 2.139.46.663.322 1.235.795 1.666 1.38.432.585.708 1.264.807 1.977a4.282 4.282 0 0 1-.242 2.112 4.401 4.401 0 0 1-1.235 1.756 4.583 4.583 0 0 1-1.938.99 4.67 4.67 0 0 1-2.19-.006 4.581 4.581 0 0 1-1.932-1.002 8.813 8.813 0 0 0-2.917-1.742 9.005 9.005 0 0 0-6.712.25 8.755 8.755 0 0 0-2.77 1.954 4.557 4.557 0 0 1-1.854 1.127 4.668 4.668 0 0 1-2.183.153 4.605 4.605 0 0 1-2.003-.855 4.426 4.426 0 0 1-1.356-1.666 4.288 4.288 0 0 1 .263-4.114 4.474 4.474 0 0 1 1.559-1.49 4.637 4.637 0 0 1 2.096-.609c.601-.023 1.2.07 1.764.274.563.205 1.079.515 1.517.915a8.903 8.903 0 0 0 6.258 2.252 8.865 8.865 0 0 0 6.073-2.685 4.53 4.53 0 0 1 1.447-1.028Z" clip-rule="evenodd"/><path fill="#355B3E" d="M65.273 16.261v-3.534H83.84v3.534h-7.193V36h-4.182V16.261h-7.193ZM85.426 36V18.546h3.989v2.909h.182c.318-1.008.863-1.784 1.636-2.33.78-.553 1.67-.83 2.67-.83.228 0 .481.012.762.034.288.016.526.042.716.08v3.784c-.175-.06-.451-.114-.83-.159a7.637 7.637 0 0 0-1.08-.08c-.75 0-1.424.163-2.022.49a3.576 3.576 0 0 0-1.398 1.329c-.34.568-.511 1.223-.511 1.966V36h-4.114Zm17.398.352c-1.106 0-2.102-.197-2.989-.59a4.878 4.878 0 0 1-2.09-1.773c-.508-.78-.762-1.743-.762-2.887 0-.985.182-1.799.545-2.443.364-.644.86-1.159 1.489-1.545a7.51 7.51 0 0 1 2.125-.875 17.288 17.288 0 0 1 2.466-.444c1.023-.106 1.852-.2 2.489-.284.636-.09 1.098-.227 1.386-.409.295-.19.443-.48.443-.875v-.068c0-.856-.254-1.519-.761-1.988-.508-.47-1.239-.705-2.193-.705-1.008 0-1.807.22-2.398.659-.583.44-.977.958-1.182 1.557l-3.84-.546c.302-1.06.802-1.947 1.5-2.659.696-.72 1.548-1.257 2.556-1.613 1.008-.364 2.121-.546 3.341-.546.841 0 1.678.099 2.511.296a7.057 7.057 0 0 1 2.284.977c.69.447 1.243 1.057 1.659 1.83.425.772.637 1.738.637 2.897V36h-3.955v-2.398h-.136c-.25.485-.602.94-1.057 1.364-.447.417-1.011.754-1.693 1.011-.674.25-1.466.375-2.375.375Zm1.068-3.022c.826 0 1.542-.163 2.148-.49.606-.332 1.072-.772 1.398-1.317.333-.546.5-1.14.5-1.784v-2.057c-.129.106-.349.204-.66.295-.303.091-.644.17-1.022.239-.379.068-.754.129-1.125.182l-.966.136a7.18 7.18 0 0 0-1.648.41c-.485.189-.867.454-1.148.795-.28.333-.42.765-.42 1.295 0 .758.276 1.33.829 1.716.553.386 1.258.58 2.114.58Zm27.25-14.784L124.926 36h-4.545l-6.216-17.454h4.386l4.011 12.965h.182l4.023-12.965h4.375Zm7.369 17.806c-1.106 0-2.102-.197-2.988-.59a4.876 4.876 0 0 1-2.091-1.773c-.508-.78-.762-1.743-.762-2.887 0-.985.182-1.799.546-2.443.364-.644.86-1.159 1.489-1.545a7.5 7.5 0 0 1 2.125-.875 17.275 17.275 0 0 1 2.465-.444c1.023-.106 1.853-.2 2.489-.284.636-.09 1.099-.227 1.386-.409.296-.19.444-.48.444-.875v-.068c0-.856-.254-1.519-.762-1.988-.507-.47-1.238-.705-2.193-.705-1.007 0-1.807.22-2.398.659-.583.44-.977.958-1.181 1.557l-3.841-.546c.303-1.06.803-1.947 1.5-2.659.697-.72 1.549-1.257 2.556-1.613 1.008-.364 2.122-.546 3.341-.546.841 0 1.678.099 2.512.296a7.076 7.076 0 0 1 2.284.977c.689.447 1.242 1.057 1.659 1.83.424.772.636 1.738.636 2.897V36h-3.954v-2.398h-.137a5.03 5.03 0 0 1-1.056 1.364c-.447.417-1.012.754-1.694 1.011-.674.25-1.466.375-2.375.375Zm1.069-3.022c.825 0 1.541-.163 2.147-.49.606-.332 1.072-.772 1.398-1.317.333-.546.5-1.14.5-1.784v-2.057c-.129.106-.348.204-.659.295-.303.091-.644.17-1.023.239-.379.068-.754.129-1.125.182l-.966.136a7.172 7.172 0 0 0-1.647.41c-.485.189-.868.454-1.148.795-.28.333-.421.765-.421 1.295 0 .758.277 1.33.83 1.716.553.386 1.257.58 2.114.58Zm16.397-20.603V36h-4.113V12.727h4.113ZM160.207 36V18.546h4.114V36h-4.114Zm2.069-19.932a2.398 2.398 0 0 1-1.682-.648c-.47-.439-.705-.966-.705-1.58 0-.62.235-1.147.705-1.579.469-.439 1.03-.659 1.682-.659.659 0 1.219.22 1.681.66.47.431.705.958.705 1.579 0 .614-.235 1.14-.705 1.58-.462.431-1.022.647-1.681.647ZM168.324 36v-2.614l9-11.284v-.148h-8.705v-3.409h13.739v2.807l-8.568 11.091v.148h8.863V36h-14.329Zm25.423.34c-1.75 0-3.261-.363-4.534-1.09-1.265-.735-2.239-1.773-2.92-3.114-.682-1.348-1.023-2.935-1.023-4.761 0-1.796.341-3.371 1.023-4.727.689-1.364 1.651-2.424 2.886-3.182 1.235-.765 2.686-1.148 4.352-1.148 1.076 0 2.091.174 3.046.523.962.34 1.81.871 2.545 1.59.743.72 1.326 1.637 1.75 2.75.424 1.107.637 2.425.637 3.955v1.262h-14.307v-2.773h10.363c-.007-.788-.178-1.489-.511-2.102a3.713 3.713 0 0 0-1.398-1.466c-.591-.356-1.28-.534-2.068-.534-.841 0-1.579.204-2.216.613a4.229 4.229 0 0 0-1.488 1.591 4.578 4.578 0 0 0-.535 2.148v2.42c0 1.016.186 1.887.557 2.614a3.97 3.97 0 0 0 1.557 1.66c.667.378 1.447.567 2.341.567.598 0 1.14-.083 1.625-.25a3.604 3.604 0 0 0 1.261-.761c.356-.333.625-.746.807-1.239l3.841.432a5.982 5.982 0 0 1-1.386 2.66c-.675.75-1.538 1.333-2.591 1.75-1.053.408-2.258.613-3.614.613Zm11.242-.34V18.546h3.988v2.909h.182c.318-1.008.864-1.784 1.636-2.33.781-.553 1.671-.83 2.671-.83a9.5 9.5 0 0 1 .761.034c.288.016.527.042.716.08v3.784c-.174-.06-.451-.114-.829-.159a7.647 7.647 0 0 0-1.08-.08c-.75 0-1.424.163-2.023.49a3.574 3.574 0 0 0-1.397 1.329c-.341.568-.512 1.223-.512 1.966V36h-4.113Z"/></svg>