<svg xmlns="http://www.w3.org/2000/svg" width="500" height="338" fill="none"><g clip-path="url(#a)"><path fill="#FDC858" d="M98.362 182.885c-13.051-13.205-21.074-31.375-21.074-51.35 0-40.403 32.825-73.188 73.277-73.188s73.333 32.729 73.333 73.131l-56.44-42.885-69.096 94.292Z"/><path fill="#007549" fill-rule="evenodd" d="M150.622 36.566c1.248 0 2.26 1.01 2.26 2.257v7.9a2.259 2.259 0 0 1-2.26 2.257 2.259 2.259 0 0 1-2.26-2.257v-7.9a2.259 2.259 0 0 1 2.26-2.257ZM150.622 21.894c1.248 0 2.26 1.01 2.26 2.257v8.239a2.259 2.259 0 0 1-2.26 2.257 2.259 2.259 0 0 1-2.26-2.257V24.15a2.259 2.259 0 0 1 2.26-2.257ZM150.622 3.78c1.248 0 2.26 1.011 2.26 2.258v10.778a2.259 2.259 0 0 1-2.26 2.257 2.259 2.259 0 0 1-2.26-2.257V6.038a2.259 2.259 0 0 1 2.26-2.257ZM134.058 38.014a2.26 2.26 0 0 1 2.629 1.815l1.412 7.73a2.26 2.26 0 0 1-4.446.81l-1.413-7.73a2.258 2.258 0 0 1 1.818-2.625ZM131.519 23.567a2.26 2.26 0 0 1 2.626 1.82l1.469 8.126a2.26 2.26 0 0 1-4.448.802l-1.469-8.126a2.257 2.257 0 0 1 1.822-2.622ZM128.355 5.736a2.26 2.26 0 0 1 2.626 1.82l1.921 10.608a2.26 2.26 0 0 1-4.448.803L126.533 8.36a2.258 2.258 0 0 1 1.822-2.623ZM118.092 42.29a2.261 2.261 0 0 1 2.9 1.343l2.712 7.392a2.26 2.26 0 0 1-4.244 1.553l-2.712-7.392a2.256 2.256 0 0 1 1.344-2.896ZM113.067 28.52a2.26 2.26 0 0 1 2.898 1.347l2.825 7.731a2.257 2.257 0 0 1-1.348 2.894 2.26 2.26 0 0 1-2.898-1.346l-2.825-7.73a2.257 2.257 0 0 1 1.348-2.895ZM106.849 11.48a2.26 2.26 0 0 1 2.9 1.343l3.729 10.157a2.26 2.26 0 0 1-4.244 1.554l-3.729-10.157a2.257 2.257 0 0 1 1.344-2.896ZM103.049 49.283a2.262 2.262 0 0 1 3.088.824l3.955 6.828a2.256 2.256 0 0 1-.825 3.084 2.262 2.262 0 0 1-3.088-.824l-3.954-6.828a2.256 2.256 0 0 1 .824-3.084ZM95.766 36.584a2.261 2.261 0 0 1 3.086.832l4.124 7.166a2.256 2.256 0 0 1-.833 3.082 2.261 2.261 0 0 1-3.085-.832l-4.125-7.166a2.256 2.256 0 0 1 .833-3.082ZM86.665 20.9a2.261 2.261 0 0 1 3.088.824l5.423 9.367a2.256 2.256 0 0 1-.825 3.084 2.261 2.261 0 0 1-3.087-.824l-5.424-9.367a2.256 2.256 0 0 1 .825-3.084ZM89.506 58.764a2.262 2.262 0 0 1 3.184.274l5.085 6.038c.803.954.68 2.378-.275 3.18-.955.803-2.38.68-3.184-.274l-5.085-6.038a2.255 2.255 0 0 1 .275-3.18ZM80.073 47.533a2.262 2.262 0 0 1 3.184.278l5.31 6.32a2.255 2.255 0 0 1-.278 3.18 2.262 2.262 0 0 1-3.184-.278l-5.31-6.32a2.255 2.255 0 0 1 .278-3.18ZM68.374 33.655a2.262 2.262 0 0 1 3.184.27l7.006 8.295a2.255 2.255 0 0 1-.27 3.18 2.262 2.262 0 0 1-3.185-.269l-7.006-8.295a2.255 2.255 0 0 1 .27-3.18ZM77.81 70.504a2.262 2.262 0 0 1 3.183-.292l6.045 5.022c.96.797 1.09 2.22.293 3.178a2.262 2.262 0 0 1-3.183.292l-6.045-5.022a2.255 2.255 0 0 1-.292-3.178ZM66.58 61.065a2.262 2.262 0 0 1 3.185-.264l6.272 5.304c.952.806 1.07 2.23.264 3.181a2.262 2.262 0 0 1-3.185.264l-6.272-5.304a2.255 2.255 0 0 1-.264-3.181ZM52.617 49.394a2.262 2.262 0 0 1 3.184-.282l8.305 6.94c.957.8 1.084 2.224.282 3.18a2.262 2.262 0 0 1-3.183.282l-8.305-6.94a2.255 2.255 0 0 1-.283-3.18ZM68.27 84.02a2.261 2.261 0 0 1 3.088-.824l6.836 3.95a2.256 2.256 0 0 1 .824 3.084 2.261 2.261 0 0 1-3.087.824l-6.837-3.95a2.256 2.256 0 0 1-.824-3.084ZM55.555 76.69a2.261 2.261 0 0 1 3.085-.833l7.175 4.12c1.083.62 1.456 2 .834 3.081a2.261 2.261 0 0 1-3.086.832l-7.175-4.119a2.256 2.256 0 0 1-.833-3.082ZM39.852 67.6a2.262 2.262 0 0 1 3.088-.824l9.378 5.417a2.256 2.256 0 0 1 .825 3.084 2.261 2.261 0 0 1-3.088.824l-9.378-5.417a2.256 2.256 0 0 1-.825-3.084ZM61.26 99.065a2.26 2.26 0 0 1 2.888-1.37l7.458 2.653a2.256 2.256 0 1 1-1.516 4.252l-7.458-2.652a2.256 2.256 0 0 1-1.371-2.883ZM47.48 94.03a2.26 2.26 0 0 1 2.895-1.352l7.796 2.821a2.256 2.256 0 1 1-1.54 4.244l-7.796-2.821a2.256 2.256 0 0 1-1.355-2.891ZM30.417 87.826a2.26 2.26 0 0 1 2.893-1.356l10.17 3.668a2.256 2.256 0 1 1-1.536 4.245l-10.17-3.667a2.256 2.256 0 0 1-1.357-2.89ZM56.983 115.009a2.26 2.26 0 0 1 2.613-1.837l7.797 1.355a2.257 2.257 0 1 1-.775 4.447l-7.796-1.354a2.258 2.258 0 0 1-1.84-2.611ZM42.576 112.468a2.259 2.259 0 0 1 2.615-1.834l8.08 1.41a2.257 2.257 0 1 1-.779 4.447l-8.079-1.411a2.257 2.257 0 0 1-1.837-2.612ZM24.666 109.309a2.26 2.26 0 0 1 2.615-1.836l10.678 1.863a2.257 2.257 0 1 1-.777 4.447l-10.678-1.863a2.256 2.256 0 0 1-1.838-2.611ZM55.537 131.478a2.259 2.259 0 0 1 2.26-2.257h7.91a2.258 2.258 0 1 1 0 4.514h-7.91a2.258 2.258 0 0 1-2.26-2.257ZM40.904 131.478a2.259 2.259 0 0 1 2.26-2.257h8.248a2.258 2.258 0 1 1 0 4.514h-8.248a2.258 2.258 0 0 1-2.26-2.257ZM22.712 131.478a2.259 2.259 0 0 1 2.26-2.257h10.847a2.258 2.258 0 1 1 0 4.514H24.972a2.258 2.258 0 0 1-2.26-2.257ZM69.232 145.82a2.257 2.257 0 0 1-1.84 2.61l-7.796 1.355a2.258 2.258 0 1 1-.774-4.448l7.796-1.354a2.26 2.26 0 0 1 2.614 1.837ZM55.108 148.301a2.257 2.257 0 0 1-1.837 2.612l-8.08 1.411a2.257 2.257 0 1 1-.778-4.447l8.08-1.411a2.26 2.26 0 0 1 2.614 1.835ZM39.797 151.01a2.258 2.258 0 0 1-1.838 2.612l-10.678 1.862a2.257 2.257 0 1 1-.777-4.447l10.678-1.862a2.26 2.26 0 0 1 2.615 1.835ZM72.971 159.711a2.257 2.257 0 0 1-1.351 2.893l-7.458 2.708a2.26 2.26 0 0 1-2.896-1.35 2.256 2.256 0 0 1 1.352-2.892l7.457-2.709a2.261 2.261 0 0 1 2.896 1.35ZM59.526 164.624a2.257 2.257 0 0 1-1.355 2.891l-7.796 2.821a2.256 2.256 0 1 1-1.54-4.244l7.797-2.822a2.26 2.26 0 0 1 2.894 1.354ZM44.834 169.919a2.256 2.256 0 0 1-1.344 2.896l-10.17 3.725a2.26 2.26 0 0 1-2.9-1.343 2.256 2.256 0 0 1 1.344-2.896l10.17-3.724a2.261 2.261 0 0 1 2.9 1.342ZM79.018 172.726a2.256 2.256 0 0 1-.824 3.084l-6.836 3.95a2.26 2.26 0 0 1-3.088-.823 2.256 2.256 0 0 1 .824-3.084l6.837-3.95a2.262 2.262 0 0 1 3.087.823ZM66.649 179.898a2.256 2.256 0 0 1-.834 3.082l-7.175 4.119a2.261 2.261 0 0 1-3.085-.832 2.256 2.256 0 0 1 .833-3.082l7.175-4.119a2.261 2.261 0 0 1 3.086.832ZM53.143 187.68a2.256 2.256 0 0 1-.825 3.084l-9.378 5.417a2.262 2.262 0 0 1-3.088-.824 2.256 2.256 0 0 1 .825-3.084l9.378-5.417a2.262 2.262 0 0 1 3.088.824ZM239.926 99.065a2.257 2.257 0 0 1-1.371 2.883l-7.458 2.652a2.256 2.256 0 1 1-1.516-4.252l7.458-2.652a2.261 2.261 0 0 1 2.887 1.369ZM253.707 94.03a2.257 2.257 0 0 1-1.355 2.892l-7.797 2.821a2.26 2.26 0 0 1-2.894-1.353 2.256 2.256 0 0 1 1.355-2.89l7.796-2.822a2.26 2.26 0 0 1 2.895 1.353ZM232.917 84.02a2.255 2.255 0 0 1-.825 3.084l-6.836 3.95a2.262 2.262 0 0 1-3.088-.824 2.256 2.256 0 0 1 .825-3.084l6.836-3.95a2.262 2.262 0 0 1 3.088.824ZM245.631 76.69a2.256 2.256 0 0 1-.833 3.081l-7.175 4.12a2.26 2.26 0 0 1-3.085-.833 2.256 2.256 0 0 1 .833-3.081l7.175-4.12a2.26 2.26 0 0 1 3.085.832ZM261.335 67.6a2.256 2.256 0 0 1-.825 3.084l-9.379 5.417a2.26 2.26 0 0 1-3.087-.824 2.255 2.255 0 0 1 .825-3.084l9.378-5.417a2.262 2.262 0 0 1 3.088.824ZM223.369 70.496a2.255 2.255 0 0 1-.278 3.18l-5.988 5.022a2.262 2.262 0 0 1-3.184-.278 2.256 2.256 0 0 1 .277-3.18l5.989-5.022a2.262 2.262 0 0 1 3.184.278ZM234.606 61.065a2.256 2.256 0 0 1-.264 3.18l-6.272 5.305a2.262 2.262 0 0 1-3.185-.264 2.255 2.255 0 0 1 .265-3.18l6.271-5.305a2.262 2.262 0 0 1 3.185.264ZM248.569 49.394c.801.956.674 2.38-.283 3.18l-8.305 6.94c-.957.8-2.382.674-3.183-.282a2.255 2.255 0 0 1 .283-3.18l8.305-6.94a2.261 2.261 0 0 1 3.183.282ZM211.681 58.764a2.255 2.255 0 0 1 .274 3.18l-5.084 6.038a2.262 2.262 0 0 1-3.184.275 2.254 2.254 0 0 1-.275-3.18l5.085-6.039a2.262 2.262 0 0 1 3.184-.274ZM221.114 47.533a2.256 2.256 0 0 1 .278 3.18l-5.311 6.32a2.262 2.262 0 0 1-3.184.278 2.256 2.256 0 0 1-.278-3.18l5.311-6.32a2.262 2.262 0 0 1 3.184-.278ZM232.806 33.65c.957.8 1.084 2.223.283 3.18l-6.949 8.294a2.261 2.261 0 0 1-3.183.283 2.254 2.254 0 0 1-.283-3.18l6.949-8.295a2.261 2.261 0 0 1 3.183-.282ZM198.137 49.283a2.255 2.255 0 0 1 .825 3.084l-3.955 6.828a2.262 2.262 0 0 1-3.088.824 2.256 2.256 0 0 1-.824-3.084l3.954-6.828a2.262 2.262 0 0 1 3.088-.824ZM205.42 36.584c1.082.621 1.455 2 .833 3.081l-4.124 7.167a2.262 2.262 0 0 1-3.086.832 2.256 2.256 0 0 1-.833-3.082l4.124-7.166a2.262 2.262 0 0 1 3.086-.832ZM214.521 20.9a2.255 2.255 0 0 1 .825 3.084l-5.423 9.367a2.262 2.262 0 0 1-3.088.824 2.256 2.256 0 0 1-.825-3.084l5.424-9.367a2.26 2.26 0 0 1 3.087-.824ZM183.094 42.29a2.257 2.257 0 0 1 1.345 2.896l-2.712 7.392a2.261 2.261 0 0 1-2.9 1.343 2.256 2.256 0 0 1-1.344-2.896l2.712-7.392a2.26 2.26 0 0 1 2.899-1.343ZM188.12 28.52a2.257 2.257 0 0 1 1.348 2.895l-2.825 7.73a2.26 2.26 0 0 1-2.898 1.347 2.257 2.257 0 0 1-1.348-2.894l2.825-7.73a2.26 2.26 0 0 1 2.898-1.347ZM194.337 11.48a2.256 2.256 0 0 1 1.344 2.897l-3.729 10.157a2.26 2.26 0 0 1-2.9 1.342 2.256 2.256 0 0 1-1.343-2.896l3.728-10.157a2.26 2.26 0 0 1 2.9-1.342ZM167.129 38.014a2.257 2.257 0 0 1 1.817 2.625l-1.412 7.731a2.26 2.26 0 0 1-4.447-.81l1.413-7.731a2.26 2.26 0 0 1 2.629-1.815ZM169.667 23.567a2.257 2.257 0 0 1 1.822 2.622l-1.469 8.126a2.259 2.259 0 0 1-2.625 1.82 2.258 2.258 0 0 1-1.823-2.622l1.469-8.126a2.26 2.26 0 0 1 2.626-1.82ZM172.831 5.736a2.257 2.257 0 0 1 1.822 2.623l-1.921 10.608a2.26 2.26 0 0 1-4.447-.803l1.92-10.609a2.26 2.26 0 0 1 2.626-1.82Z" clip-rule="evenodd"/><path fill="#355B3E" fill-rule="evenodd" d="M5.141 335.016a2.258 2.258 0 0 1 2.26-2.257h78.757a2.258 2.258 0 1 1 0 4.514H7.401a2.259 2.259 0 0 1-2.26-2.257ZM93.785 335.016a2.258 2.258 0 0 1 2.26-2.257h112.712c1.248 0 2.26 1.01 2.26 2.257a2.259 2.259 0 0 1-2.26 2.257H96.045a2.259 2.259 0 0 1-2.26-2.257ZM400.226 335.016a2.258 2.258 0 0 1 2.26-2.257h10.226c1.248 0 2.26 1.01 2.26 2.257a2.259 2.259 0 0 1-2.26 2.257h-10.226a2.259 2.259 0 0 1-2.26-2.257ZM420.283 335.016a2.258 2.258 0 0 1 2.26-2.257h48.926c1.248 0 2.26 1.01 2.26 2.257a2.259 2.259 0 0 1-2.26 2.257h-48.926a2.259 2.259 0 0 1-2.26-2.257ZM477.684 335.016a2.257 2.257 0 0 1 2.259-2.257h3.673c1.248 0 2.26 1.01 2.26 2.257a2.259 2.259 0 0 1-2.26 2.257h-3.673a2.258 2.258 0 0 1-2.259-2.257Z" clip-rule="evenodd"/><path fill="#007549" fill-rule="evenodd" d="M167.424 86.583a2.263 2.263 0 0 1 1.694.446l61.921 47.569a2.256 2.256 0 0 1 .413 3.166 2.262 2.262 0 0 1-3.169.413l-60.092-46.164L58.769 240.37a2.262 2.262 0 0 1-3.16.478 2.255 2.255 0 0 1-.48-3.156L165.92 87.48a2.263 2.263 0 0 1 1.504-.897Z" clip-rule="evenodd"/><path fill="#007549" fill-rule="evenodd" d="M280.284 65.186a2.263 2.263 0 0 1 1.744.575l134.35 121.886c.924.838.993 2.265.153 3.188a2.261 2.261 0 0 1-3.192.153L280.843 70.785l-77.668 105.313a2.262 2.262 0 0 1-3.16.478 2.256 2.256 0 0 1-.479-3.156l79.153-107.327a2.26 2.26 0 0 1 1.595-.907ZM221.513 127.271a2.256 2.256 0 0 1 .666 3.122l-6.78 10.439a2.261 2.261 0 0 1-2.735.868l-15.517-6.199-6.331 9.63a2.261 2.261 0 0 1-2.596.906l-12.292-4.042-6.197 5.752a2.264 2.264 0 0 1-2.349.453l-16.521-6.342-12.57 4.979c-.934.37-2 .08-2.617-.712l-5.537-7.11a2.256 2.256 0 0 1 .397-3.168 2.262 2.262 0 0 1 3.171.396l4.496 5.774 11.813-4.68a2.264 2.264 0 0 1 1.644-.009l16.029 6.153 6.142-5.7a2.263 2.263 0 0 1 2.245-.49l11.914 3.917 6.394-9.727a2.262 2.262 0 0 1 2.729-.857l15.507 6.195 5.769-8.883a2.263 2.263 0 0 1 3.126-.665Z" clip-rule="evenodd"/><path fill="#007549" fill-rule="evenodd" d="M306.264 107.415a2.263 2.263 0 0 1 2.241-.961l21.808 3.612a2.258 2.258 0 1 1-.739 4.453l-20.379-3.374-7.606 11.216a2.263 2.263 0 0 1-3.077.644l-11.877-7.479L270 124.493a2.262 2.262 0 0 1-3.061-.912l-5.452-10.058-15.5 3.565a2.257 2.257 0 1 1-1.014-4.399l17.175-3.95a2.26 2.26 0 0 1 2.495 1.125l5.196 9.585 15.811-8.522a2.262 2.262 0 0 1 2.278.077l11.145 7.017 7.191-10.606ZM326.328 59.983c0-12.645 10.221-22.853 22.881-22.853 8.532 0 16.036 4.718 19.942 11.674a17.581 17.581 0 0 1 3.674-.388c6.698 0 12.55 3.82 15.391 9.41.487-.065.989-.1 1.502-.1 6.276 0 11.412 5.13 11.412 11.399 0 1.57-.354 3.109-.911 4.43a2.26 2.26 0 0 1-2.083 1.382h-80.452a2.263 2.263 0 0 1-1.859-.973 2.253 2.253 0 0 1-.256-2.08 16.987 16.987 0 0 1 10.827-10.222 21.63 21.63 0 0 1-.068-1.678Zm22.881-18.339c-10.164 0-18.361 8.188-18.361 18.34 0 .98.098 1.991.257 3.05a2.257 2.257 0 0 1-1.824 2.555c-3.217.593-5.967 2.353-7.814 4.834h75.01c.086-.43.133-.867.133-1.298 0-3.776-3.112-6.884-6.892-6.884-.769 0-1.488.128-2.111.335a2.26 2.26 0 0 1-2.836-1.365c-1.771-4.827-6.472-8.281-11.946-8.281-1.443 0-2.841.24-4.144.674a2.262 2.262 0 0 1-2.774-1.21c-2.866-6.33-9.309-10.75-16.698-10.75ZM411.299 99.088c0-9.823 7.961-17.775 17.797-17.775 9.214 0 16.782 6.978 17.703 15.936.235-.015.474-.023.715-.023 6.607 0 12.034 5.347 12.034 12.02v.282a2.259 2.259 0 0 1-2.26 2.257h-51.356a2.259 2.259 0 0 1-2.26-2.257v-.226c0-4.706 3.285-8.601 7.636-9.617a19.86 19.86 0 0 1-.009-.597Zm17.797-13.26c-7.339 0-13.277 5.93-13.277 13.26 0 .81.051 1.499.182 2.153a2.255 2.255 0 0 1-2.216 2.7h-.226a5.378 5.378 0 0 0-4.968 3.33h46.175a7.524 7.524 0 0 0-7.252-5.53 7.37 7.37 0 0 0-2.207.348 2.261 2.261 0 0 1-2.934-2.154v-.847c0-7.33-5.937-13.26-13.277-13.26Z" clip-rule="evenodd"/><path fill="#65CDD5" d="M157.57 335.016c-14.293 0-25.932-11.624-25.932-25.901 0-14.276 11.639-25.901 25.932-25.901 14.294 0 25.933 11.625 25.933 25.901 0 14.277-11.639 25.901-25.933 25.901Z"/><path fill="#355B3E" fill-rule="evenodd" d="M157.571 285.472c-13.046 0-23.673 10.613-23.673 23.643 0 13.03 10.627 23.644 23.673 23.644 13.045 0 23.672-10.614 23.672-23.644 0-13.03-10.627-23.643-23.672-23.643Zm-28.193 23.643c0-15.523 12.651-28.158 28.193-28.158 15.541 0 28.192 12.635 28.192 28.158 0 15.523-12.651 28.158-28.192 28.158-15.542 0-28.193-12.635-28.193-28.158Z" clip-rule="evenodd"/><path fill="#FDC858" d="M157.571 322.658c-7.458 0-13.56-6.094-13.56-13.543 0-7.448 6.102-13.543 13.56-13.543 7.457 0 13.559 6.095 13.559 13.543 0 7.449-6.102 13.543-13.559 13.543Z"/><path fill="#355B3E" fill-rule="evenodd" d="M157.571 297.829c-6.21 0-11.3 5.084-11.3 11.286s5.09 11.286 11.3 11.286c6.209 0 11.299-5.084 11.299-11.286s-5.09-11.286-11.299-11.286Zm-15.82 11.286c0-8.695 7.114-15.8 15.82-15.8 8.705 0 15.819 7.105 15.819 15.8s-7.114 15.8-15.819 15.8c-8.706 0-15.82-7.105-15.82-15.8Z" clip-rule="evenodd"/><path fill="#FDC858" d="M157.571 313.573a4.47 4.47 0 0 1-4.464-4.458c0-2.483 2.034-4.458 4.464-4.458 2.486 0 4.463 2.032 4.463 4.458a4.47 4.47 0 0 1-4.463 4.458Z"/><path fill="#355B3E" fill-rule="evenodd" d="M157.571 306.914c-1.2 0-2.204.983-2.204 2.201 0 1.199.985 2.201 2.204 2.201a2.211 2.211 0 0 0 2.203-2.201 2.212 2.212 0 0 0-2.203-2.201Zm-6.723 2.201c0-3.748 3.064-6.715 6.723-6.715 3.752 0 6.723 3.061 6.723 6.715s-2.971 6.715-6.723 6.715c-3.753 0-6.723-3.061-6.723-6.715Z" clip-rule="evenodd"/><path fill="#3F7539" d="m364.915 230.285-5.31-20.145c-2.091-8.07-8.983-13.938-17.288-14.841-23.729-2.539-52.486-4.007-86.046-4.007-38.418 0-97.457 2.935-115.197 4.966-3.221.339-5.989 2.427-7.288 5.417l-10.678 24.942c-4.916 8.803-7.91 18.508-8.758 28.553l-.225 56.089 11.92.226c-.056-.79-.113-1.58-.113-2.37 0-17.436 14.125-31.543 31.582-31.543 17.458 0 31.582 14.107 31.582 31.543 0 1.016-.056 2.032-.169 2.991l83.051 1.016a31.028 31.028 0 0 1-.283-4.007c0-17.436 14.124-31.543 31.582-31.543s31.582 14.107 31.582 31.543c0 1.58-.113 3.104-.339 4.627l33.503.339v-58.46c.169-8.521-.961-17.041-3.108-25.336Z"/><g fill="#3F7539" opacity=".36"><path d="m120.452 311.259.226-56.089c.848-10.045 3.842-19.75 8.757-28.553l10.678-24.942c1.3-2.99 4.068-5.022 7.288-5.417 17.232-1.975 73.334-4.796 111.752-4.966h-2.882c-38.418 0-97.457 2.935-115.197 4.966-3.221.339-5.989 2.427-7.288 5.417l-10.678 24.942c-4.916 8.803-7.91 18.508-8.758 28.553l-.225 56.089 11.92.226v-.113l-5.593-.113ZM340.961 313.742c.225-1.523.338-3.047.338-4.627 0-17.436-14.124-31.543-31.581-31.543-1.074 0-2.091.056-3.164.169 15.988 1.58 28.418 15.01 28.418 31.374 0 1.58-.113 3.104-.339 4.627l33.503.339v-.057l-27.175-.282Z" opacity=".36"/><path d="M195.311 312.049c.113-.959.17-1.975.17-2.99 0-17.437-14.125-31.544-31.582-31.544-1.074 0-2.091.057-3.164.169 15.989 1.58 28.418 15.01 28.418 31.375 0 1.015-.057 2.031-.17 2.99l83.051 1.016v-.056l-76.723-.96Z" opacity=".36"/></g><path fill="#3F7539" d="M195.424 306.971h75.48v-7.505h-76.949c.791 2.426 1.243 4.909 1.469 7.505Z" opacity=".36"/><path fill="#3F7539" d="m366.045 229.72-5.311-20.145c-2.09-8.069-8.983-13.938-17.288-14.84-23.729-2.54-52.486-4.007-86.045-4.007-38.418 0-97.458 2.934-115.198 4.966-2.768.338-5.254 1.918-6.666 4.288 0 0 0-.959.056-.959 17.74-2.031 76.78-4.006 115.198-4.006 33.616 0 62.316 1.467 86.045 4.006a20.086 20.086 0 0 1 17.288 14.841l5.311 20.145c2.203 8.295 3.277 16.816 3.277 25.336v54.115l6.666.057v-58.46a103.927 103.927 0 0 0-3.333-25.337Z" opacity=".25"/><path fill="#355B3E" fill-rule="evenodd" d="M140.826 194.015c17.869-2.045 76.987-4.98 115.445-4.98 33.622 0 62.461 1.47 86.286 4.02h.004c9.221 1.003 16.898 7.523 19.229 16.513a.014.014 0 0 1 .002.006l5.309 20.136.002.01c2.19 8.463 3.351 17.181 3.179 25.923v58.438a2.256 2.256 0 0 1-2.282 2.257l-33.503-.339a2.26 2.26 0 0 1-2.213-2.588c.21-1.413.315-2.826.315-4.296 0-16.19-13.113-29.286-29.322-29.286-16.21 0-29.322 13.096-29.322 29.286 0 1.232.103 2.486.263 3.715a2.26 2.26 0 0 1-2.268 2.549l-83.051-1.016a2.256 2.256 0 0 1-2.217-2.521 23.52 23.52 0 0 0 .154-2.727c0-16.19-13.113-29.286-29.322-29.286-16.21 0-29.322 13.096-29.322 29.286 0 .696.05 1.406.107 2.209a2.257 2.257 0 0 1-2.297 2.418l-11.921-.226a2.258 2.258 0 0 1-2.217-2.266l.226-56.09c.001-.06.003-.12.008-.18.872-10.328 3.942-20.307 8.977-29.359l10.632-24.833.005-.011c1.61-3.707 5.058-6.332 9.114-6.762Zm115.445-.465c-38.371 0-97.317 2.933-114.94 4.951l-.021.002c-2.379.25-4.461 1.797-5.449 4.066a.022.022 0 0 0-.003.005l-10.673 24.93a2.311 2.311 0 0 1-.104.212c-4.746 8.5-7.641 17.865-8.471 27.554l-.217 53.775 7.279.138v-.068c0-18.683 15.136-33.801 33.842-33.801s33.842 15.118 33.842 33.801c0 .254-.003.509-.01.763l78.141.956a29.596 29.596 0 0 1-.052-1.719c0-18.683 15.136-33.801 33.842-33.801 18.705 0 33.841 15.118 33.841 33.801 0 .809-.027 1.606-.083 2.395l28.728.291v-56.225c.165-8.291-.934-16.604-3.035-24.722l-.001-.005-5.308-20.135-.002-.009c-1.851-7.145-7.958-12.358-15.343-13.162-23.633-2.529-52.307-3.993-85.803-3.993Z" clip-rule="evenodd"/><path fill="#65CDD5" d="M303.39 335.016c-14.294 0-25.932-11.624-25.932-25.901 0-14.276 11.638-25.901 25.932-25.901 14.294 0 25.932 11.625 25.932 25.901 0 14.277-11.638 25.901-25.932 25.901Z"/><path fill="#355B3E" fill-rule="evenodd" d="M303.39 285.472c-13.046 0-23.672 10.613-23.672 23.643 0 13.03 10.626 23.644 23.672 23.644 13.046 0 23.672-10.614 23.672-23.644 0-13.03-10.626-23.643-23.672-23.643Zm-28.192 23.643c0-15.523 12.65-28.158 28.192-28.158s28.192 12.635 28.192 28.158c0 15.523-12.65 28.158-28.192 28.158s-28.192-12.635-28.192-28.158Z" clip-rule="evenodd"/><path fill="#FDC858" d="M303.39 322.658c-7.458 0-13.559-6.094-13.559-13.543 0-7.448 6.101-13.543 13.559-13.543 7.458 0 13.559 6.095 13.559 13.543 0 7.449-6.101 13.543-13.559 13.543Z"/><path fill="#355B3E" fill-rule="evenodd" d="M303.39 297.829c-6.21 0-11.299 5.084-11.299 11.286s5.089 11.286 11.299 11.286c6.21 0 11.299-5.084 11.299-11.286s-5.089-11.286-11.299-11.286Zm-15.819 11.286c0-8.695 7.113-15.8 15.819-15.8s15.819 7.105 15.819 15.8-7.113 15.8-15.819 15.8-15.819-7.105-15.819-15.8Z" clip-rule="evenodd"/><path fill="#FDC858" d="M303.39 313.573a4.47 4.47 0 0 1-4.463-4.458c0-2.483 2.034-4.458 4.463-4.458 2.486 0 4.463 2.032 4.463 4.458a4.47 4.47 0 0 1-4.463 4.458Z"/><path fill="#355B3E" fill-rule="evenodd" d="M303.39 306.914c-1.2 0-2.204.983-2.204 2.201 0 1.199.984 2.201 2.204 2.201a2.211 2.211 0 0 0 2.203-2.201 2.212 2.212 0 0 0-2.203-2.201Zm-6.723 2.201c0-3.748 3.064-6.715 6.723-6.715 3.752 0 6.723 3.061 6.723 6.715s-2.971 6.715-6.723 6.715c-3.753 0-6.723-3.061-6.723-6.715Z" clip-rule="evenodd"/><path fill="#fff" d="M114.124 316.282h-6.158a4.555 4.555 0 0 1-4.576-4.571v-18.227a4.554 4.554 0 0 1 4.576-4.57h6.158v27.368Z"/><path fill="#355B3E" fill-rule="evenodd" d="M107.966 291.171a2.296 2.296 0 0 0-2.316 2.313v18.227a2.295 2.295 0 0 0 2.316 2.313h3.898v-22.853h-3.898Zm-6.836 2.313a6.813 6.813 0 0 1 6.836-6.827h6.158c1.248 0 2.26 1.01 2.26 2.257v27.368a2.259 2.259 0 0 1-2.26 2.257h-6.158a6.813 6.813 0 0 1-6.836-6.828v-18.227Z" clip-rule="evenodd"/><path fill="#fff" d="M115.028 281.578h-2.26a3.036 3.036 0 0 1-3.051-3.047v-13.994a3.036 3.036 0 0 1 3.051-3.047h2.26a3.036 3.036 0 0 1 3.051 3.047v13.994a3.036 3.036 0 0 1-3.051 3.047Z"/><path fill="#355B3E" fill-rule="evenodd" d="M112.768 263.747a.778.778 0 0 0-.791.79v13.994c0 .446.344.79.791.79h2.26a.778.778 0 0 0 .791-.79v-13.994a.778.778 0 0 0-.791-.79h-2.26Zm-5.31.79a5.294 5.294 0 0 1 5.31-5.305h2.26a5.295 5.295 0 0 1 5.311 5.305v13.994a5.295 5.295 0 0 1-5.311 5.304h-2.26a5.294 5.294 0 0 1-5.31-5.304v-13.994Z" clip-rule="evenodd"/><path fill="#fff" d="M372.486 320.627h-24.294a5.061 5.061 0 0 1-5.085-5.079v-3.95a5.061 5.061 0 0 1 5.085-5.079h24.294a5.061 5.061 0 0 1 5.085 5.079v3.95c0 2.765-2.317 5.079-5.085 5.079Z"/><path fill="#D8D8D8" d="M348.531 315.153c0-1.411 1.186-2.596 2.599-2.596h26.384v-.959a5.061 5.061 0 0 0-5.085-5.079h-24.293a5.061 5.061 0 0 0-5.085 5.079v3.95a5.061 5.061 0 0 0 5.085 5.079h.395v-5.474Z"/><path fill="#355B3E" fill-rule="evenodd" d="M348.192 308.777a2.802 2.802 0 0 0-2.825 2.821v3.95a2.802 2.802 0 0 0 2.825 2.821h24.294c1.52 0 2.825-1.303 2.825-2.821v-3.95a2.802 2.802 0 0 0-2.825-2.821h-24.294Zm-7.344 2.821a7.319 7.319 0 0 1 7.344-7.336h24.294a7.32 7.32 0 0 1 7.345 7.336v3.95c0 4.012-3.328 7.336-7.345 7.336h-24.294a7.319 7.319 0 0 1-7.344-7.336v-3.95Z" clip-rule="evenodd"/><path fill="#FDC858" d="M331.356 243.376h-26.158a5.421 5.421 0 0 1-5.424-5.417v-26.352a5.421 5.421 0 0 1 5.424-5.417h15.875c6.272 0 11.582 4.57 12.543 10.777l3.051 20.145c.565 3.33-1.978 6.264-5.311 6.264Z"/><path fill="#FDC858" d="M310.847 218.096a5.422 5.422 0 0 1 5.424-5.417h15.876a12.709 12.709 0 0 0-11.074-6.433h-15.875a5.421 5.421 0 0 0-5.424 5.417v26.352a5.421 5.421 0 0 0 5.424 5.417h5.649v-25.336Z" opacity=".56"/><path fill="#355B3E" fill-rule="evenodd" d="M305.198 208.447a3.164 3.164 0 0 0-3.164 3.16v26.352a3.164 3.164 0 0 0 3.164 3.16h26.158c1.956 0 3.41-1.699 3.083-3.629l-.007-.04-3.05-20.138v-.003c-.793-5.113-5.161-8.862-10.309-8.862h-15.875Zm-7.684 3.16c0-4.238 3.441-7.675 7.684-7.675h15.875c7.394 0 13.647 5.391 14.776 12.691l.001.007 3.048 20.127c.788 4.719-2.839 8.876-7.542 8.876h-26.158c-4.243 0-7.684-3.437-7.684-7.674v-26.352Z" clip-rule="evenodd"/><path fill="#FDC858" d="M282.373 242.812h-57.74a5.422 5.422 0 0 1-5.424-5.417v-26.352a5.422 5.422 0 0 1 5.424-5.418h57.74a5.423 5.423 0 0 1 5.424 5.418v26.352c-.057 2.99-2.43 5.417-5.424 5.417Z"/><path fill="#FDC858" d="M229.661 216.855a5.421 5.421 0 0 1 5.424-5.417h52.655v-.395a5.422 5.422 0 0 0-5.424-5.418h-57.683a5.422 5.422 0 0 0-5.424 5.418v26.352a5.422 5.422 0 0 0 5.424 5.417h5.084v-25.957h-.056Z" opacity=".56"/><path fill="#355B3E" fill-rule="evenodd" d="M224.633 207.882a3.164 3.164 0 0 0-3.164 3.16v26.353a3.164 3.164 0 0 0 3.164 3.16h57.74c1.702 0 3.12-1.377 3.164-3.184v-26.329a3.164 3.164 0 0 0-3.164-3.16h-57.74Zm-7.684 3.16c0-4.237 3.441-7.674 7.684-7.674h57.74c4.242 0 7.684 3.437 7.684 7.674v26.353l-.001.042c-.079 4.165-3.403 7.632-7.683 7.632h-57.74c-4.243 0-7.684-3.437-7.684-7.674v-26.353Z" clip-rule="evenodd"/><path fill="#FDC858" d="M192.938 243.376h-54.407c-3.051 0-5.254-3.386-4.407-6.828l6.272-26.352c.565-2.314 2.372-3.95 4.406-3.95h48.136c2.542 0 4.576 2.426 4.576 5.417v26.352c.057 2.935-2.034 5.361-4.576 5.361Z"/><path fill="#FDC858" d="m144.294 242.078 6.271-26.352c.565-2.314 2.373-3.95 4.407-3.95h42.542v-.169c0-2.991-2.034-5.417-4.576-5.417h-48.136c-2.033 0-3.841 1.636-4.406 3.95l-6.271 26.352c-.791 3.442 1.355 6.828 4.406 6.828h5.594c.056-.395.113-.79.169-1.242Z" opacity=".56"/><path fill="#355B3E" fill-rule="evenodd" d="m142.593 210.725-6.27 26.345-.004.017c-.607 2.466 1.056 4.032 2.212 4.032h54.407c.993 0 2.355-1.086 2.317-3.06l-.001-.044v-26.352c0-2.124-1.371-3.16-2.316-3.16h-48.136c-.745 0-1.827.664-2.209 2.222Zm-4.393-1.064c.749-3.065 3.281-5.672 6.602-5.672h48.136c4.14 0 6.836 3.817 6.836 7.674v26.332c.063 3.886-2.753 7.638-6.836 7.638h-54.407c-4.942 0-7.685-5.198-6.603-9.615l6.269-26.344.003-.013Z" clip-rule="evenodd"/><path fill="#355B3E" fill-rule="evenodd" d="M197.966 193.945c0-.312.253-.565.565-.565 6.753 0 12.204 5.444 12.204 12.189v106.763a.565.565 0 0 1-1.13 0V205.569c0-6.121-4.945-11.06-11.074-11.06a.565.565 0 0 1-.565-.564Z" clip-rule="evenodd" opacity=".48"/><path fill="#355B3E" fill-rule="evenodd" d="M181.243 256.919a2.258 2.258 0 0 1 2.26-2.257h16.949c1.248 0 2.26 1.01 2.26 2.257a2.259 2.259 0 0 1-2.26 2.257h-16.949a2.259 2.259 0 0 1-2.26-2.257ZM269.209 255.621a2.258 2.258 0 0 1 2.26-2.257h14.463c1.248 0 2.26 1.01 2.26 2.257a2.259 2.259 0 0 1-2.26 2.257h-14.463a2.259 2.259 0 0 1-2.26-2.257Z" clip-rule="evenodd"/><path fill="#D8D8D8" d="M369.661 294.839h-2.203V240.95h2.203c3.729 0 6.78 3.047 6.78 6.771v40.346c0 3.725-3.051 6.772-6.78 6.772Z"/><path fill="#355B3E" fill-rule="evenodd" d="M365.198 240.95a2.26 2.26 0 0 1 2.26-2.258h2.203c4.977 0 9.04 4.058 9.04 9.029v40.346c0 4.971-4.063 9.029-9.04 9.029h-2.203a2.259 2.259 0 0 1-2.26-2.257V240.95Zm4.52 2.257v49.374c2.455-.03 4.463-2.055 4.463-4.514v-40.346c0-2.459-2.008-4.483-4.463-4.514ZM340.848 211.889a2.258 2.258 0 0 1 2.26-2.257h6.836c1.248 0 2.26 1.01 2.26 2.257a2.259 2.259 0 0 1-2.26 2.257h-6.836a2.258 2.258 0 0 1-2.26-2.257ZM343.672 221.595a2.26 2.26 0 0 1 2.26-2.258h6.836a2.259 2.259 0 1 1 0 4.515h-6.836a2.259 2.259 0 0 1-2.26-2.257ZM346.328 231.244a2.258 2.258 0 0 1 2.26-2.257h6.836c1.248 0 2.26 1.01 2.26 2.257a2.259 2.259 0 0 1-2.26 2.257h-6.836a2.258 2.258 0 0 1-2.26-2.257ZM347.458 240.95a2.258 2.258 0 0 1 2.259-2.258h6.893a2.26 2.26 0 0 1 2.26 2.258 2.259 2.259 0 0 1-2.26 2.257h-6.893a2.258 2.258 0 0 1-2.259-2.257Z" clip-rule="evenodd"/><path fill="#fff" d="M267.118 315.83h-73.05a5.446 5.446 0 0 1-5.481-5.473 5.447 5.447 0 0 1 5.481-5.474h73.05a5.447 5.447 0 0 1 5.481 5.474c0 2.99-2.43 5.473-5.481 5.473Z"/><path fill="#fff" d="M267.118 315.83h-73.05a5.446 5.446 0 0 1-5.481-5.473 5.447 5.447 0 0 1 5.481-5.474h73.05a5.447 5.447 0 0 1 5.481 5.474c0 2.99-2.43 5.473-5.481 5.473Z"/><path fill="#D8D8D8" d="M272.599 304.883h-84.012v5.474h84.012v-5.474Z"/><path fill="#355B3E" fill-rule="evenodd" d="M194.068 307.14a3.189 3.189 0 0 0-3.221 3.217c0 1.8 1.418 3.216 3.221 3.216h73.051a3.223 3.223 0 0 0 3.22-3.216 3.188 3.188 0 0 0-3.22-3.217h-73.051Zm-7.74 3.217a7.705 7.705 0 0 1 7.74-7.731h73.051a7.705 7.705 0 0 1 7.74 7.731c0 4.222-3.426 7.73-7.74 7.73h-73.051a7.704 7.704 0 0 1-7.74-7.73ZM161.136 217.465c.442.44.444 1.154.004 1.596l-11.073 11.117a1.131 1.131 0 0 1-1.598.004 1.127 1.127 0 0 1-.004-1.596l11.073-11.117a1.131 1.131 0 0 1 1.598-.004ZM174.355 214.586c.443.44.446 1.154.006 1.596l-14.915 15.01a1.13 1.13 0 0 1-1.604-1.59l14.915-15.01a1.131 1.131 0 0 1 1.598-.006ZM247.12 216.107c.445.437.451 1.152.013 1.596l-11.017 11.173a1.131 1.131 0 0 1-1.598.012 1.127 1.127 0 0 1-.012-1.596l11.016-11.173a1.131 1.131 0 0 1 1.598-.012ZM260.401 213.289c.443.439.445 1.153.006 1.596l-14.915 15.01a1.131 1.131 0 0 1-1.598.006 1.127 1.127 0 0 1-.006-1.596l14.915-15.01a1.13 1.13 0 0 1 1.598-.006ZM316.839 219.155c.444.438.449 1.153.01 1.596l-9.096 9.198a1.13 1.13 0 0 1-1.608-1.586l9.096-9.198a1.131 1.131 0 0 1 1.598-.01ZM327.743 216.785c.444.437.449 1.152.011 1.596l-12.26 12.414a1.13 1.13 0 0 1-1.609-1.585l12.26-12.414a1.13 1.13 0 0 1 1.598-.011Z" clip-rule="evenodd"/><path fill="#FDC858" d="m399.83 258.95 46.667-110.374c1.017-2.37 4.407-2.37 5.424 0l46.667 110.374c5.593 13.204-6.328 27.029-23.277 27.029h-52.204c-16.949 0-28.87-13.825-23.277-27.029Z"/><path fill="#FDC858" d="m399.83 258.95 46.667-110.374c1.017-2.37 4.407-2.37 5.424 0l46.667 110.374c5.593 13.204-6.328 27.029-23.277 27.029h-52.204c-16.949 0-28.87-13.825-23.277-27.029Z"/><path fill="#FDC858" d="M422.655 264.142 455.932 158l-3.954-9.424c-1.017-2.37-4.407-2.37-5.424 0L399.887 258.95c-5.593 13.204 6.328 27.029 23.277 27.029h3.955c-4.972-4.175-6.893-11.116-4.464-21.837Z" opacity=".56"/><path fill="#355B3E" fill-rule="evenodd" d="M449.209 166.634c1.248 0 2.26 1.01 2.26 2.257v166.125a2.258 2.258 0 0 1-2.26 2.257 2.258 2.258 0 0 1-2.26-2.257V168.891a2.258 2.258 0 0 1 2.26-2.257Z" clip-rule="evenodd"/><path fill="#355B3E" fill-rule="evenodd" d="M464.291 190.469a2.255 2.255 0 0 1-.076 3.191l-13.446 12.809a2.262 2.262 0 0 1-3.123-.003l-13.39-12.809a2.257 2.257 0 0 1-.069-3.192 2.262 2.262 0 0 1 3.196-.068l11.83 11.317 11.883-11.321a2.262 2.262 0 0 1 3.195.076ZM431.588 214.842a2.262 2.262 0 0 1 3.195-.069l14.426 13.797 14.426-13.797a2.262 2.262 0 0 1 3.195.069c.863.9.832 2.329-.069 3.191l-15.989 15.293a2.264 2.264 0 0 1-3.126 0l-15.989-15.293a2.255 2.255 0 0 1-.069-3.191ZM420.773 242.762a2.261 2.261 0 0 1 3.175-.363l25.261 20.045 25.261-20.045a2.261 2.261 0 0 1 3.175.363 2.255 2.255 0 0 1-.364 3.171l-26.666 21.161a2.263 2.263 0 0 1-2.812 0l-26.667-21.161a2.254 2.254 0 0 1-.363-3.171Z" clip-rule="evenodd"/><path fill="#007549" fill-rule="evenodd" d="M284.278 1.056a2.262 2.262 0 0 1 3.196 0l5.181 5.175 5.182-5.175a2.262 2.262 0 0 1 3.196 0c.882.882.882 2.31 0 3.192l-6.78 6.772a2.262 2.262 0 0 1-3.196 0l-6.779-6.772a2.254 2.254 0 0 1 0-3.192ZM334.667 9.866a2.26 2.26 0 0 1 3.195-.014l5.239 5.189 5.188-5.182a2.262 2.262 0 0 1 3.196 0c.882.881.882 2.31 0 3.192l-6.78 6.771a2.261 2.261 0 0 1-3.189.007l-6.836-6.771a2.255 2.255 0 0 1-.013-3.192ZM442.131 46.255a2.262 2.262 0 0 1 3.196 0l5.188 5.182 5.238-5.188a2.262 2.262 0 0 1 3.196.013 2.255 2.255 0 0 1-.013 3.192l-6.836 6.771a2.263 2.263 0 0 1-3.19-.006l-6.779-6.772a2.254 2.254 0 0 1 0-3.192Z" clip-rule="evenodd"/><path fill="#355B3E" fill-rule="evenodd" d="M232.204 335.016a2.258 2.258 0 0 1 2.26-2.257h157.062c1.248 0 2.26 1.01 2.26 2.257a2.259 2.259 0 0 1-2.26 2.257H234.464a2.258 2.258 0 0 1-2.26-2.257Z" clip-rule="evenodd"/><path fill="#355B3E" fill-rule="evenodd" d="M215.254 335.016a2.258 2.258 0 0 1 2.26-2.257h19.04c1.248 0 2.26 1.01 2.26 2.257a2.259 2.259 0 0 1-2.26 2.257h-19.04a2.259 2.259 0 0 1-2.26-2.257Z" clip-rule="evenodd"/></g><defs><clipPath id="a"><path fill="#fff" d="M0 0h500v337.442H0z"/></clipPath></defs></svg>